<svg width="512" height="512" viewBox="0 0 512 512" fill="none" xmlns="http://www.w3.org/2000/svg">
<g clip-path="url(#clip0_330_472)">
<path d="M0 185.295C0 120.436 0 88.0061 12.6225 63.2331C23.7255 41.4421 41.4421 23.7255 63.2331 12.6225C88.0061 0 120.436 0 185.295 0H326.705C391.564 0 423.994 0 448.767 12.6225C470.558 23.7255 488.275 41.4421 499.378 63.2331C512 88.0061 512 120.436 512 185.295V326.705C512 391.564 512 423.994 499.378 448.767C488.275 470.558 470.558 488.275 448.767 499.378C423.994 512 391.564 512 326.705 512H185.295C120.436 512 88.0061 512 63.2331 499.378C41.4421 488.275 23.7255 470.558 12.6225 448.767C0 423.994 0 391.564 0 326.705V185.295Z" fill="white"/>
<path d="M0 185.295C0 120.436 0 88.0061 12.6225 63.2331C23.7255 41.4421 41.4421 23.7255 63.2331 12.6225C88.0061 0 120.436 0 185.295 0H326.705C391.564 0 423.994 0 448.767 12.6225C470.558 23.7255 488.275 41.4421 499.378 63.2331C512 88.0061 512 120.436 512 185.295V326.705C512 391.564 512 423.994 499.378 448.767C488.275 470.558 470.558 488.275 448.767 499.378C423.994 512 391.564 512 326.705 512H185.295C120.436 512 88.0061 512 63.2331 499.378C41.4421 488.275 23.7255 470.558 12.6225 448.767C0 423.994 0 391.564 0 326.705V185.295Z" fill="url(#paint0_radial_330_472)"/>
<path d="M0 185.295C0 120.436 0 88.0061 12.6225 63.2331C23.7255 41.4421 41.4421 23.7255 63.2331 12.6225C88.0061 0 120.436 0 185.295 0H326.705C391.564 0 423.994 0 448.767 12.6225C470.558 23.7255 488.275 41.4421 499.378 63.2331C512 88.0061 512 120.436 512 185.295V326.705C512 391.564 512 423.994 499.378 448.767C488.275 470.558 470.558 488.275 448.767 499.378C423.994 512 391.564 512 326.705 512H185.295C120.436 512 88.0061 512 63.2331 499.378C41.4421 488.275 23.7255 470.558 12.6225 448.767C0 423.994 0 391.564 0 326.705V185.295Z" fill="url(#paint1_radial_330_472)"/>
<path d="M0 185.295C0 120.436 0 88.0061 12.6225 63.2331C23.7255 41.4421 41.4421 23.7255 63.2331 12.6225C88.0061 0 120.436 0 185.295 0H326.705C391.564 0 423.994 0 448.767 12.6225C470.558 23.7255 488.275 41.4421 499.378 63.2331C512 88.0061 512 120.436 512 185.295V326.705C512 391.564 512 423.994 499.378 448.767C488.275 470.558 470.558 488.275 448.767 499.378C423.994 512 391.564 512 326.705 512H185.295C120.436 512 88.0061 512 63.2331 499.378C41.4421 488.275 23.7255 470.558 12.6225 448.767C0 423.994 0 391.564 0 326.705V185.295Z" fill="url(#paint2_radial_330_472)"/>
<path d="M0 185.295C0 120.436 0 88.0061 12.6225 63.2331C23.7255 41.4421 41.4421 23.7255 63.2331 12.6225C88.0061 0 120.436 0 185.295 0H326.705C391.564 0 423.994 0 448.767 12.6225C470.558 23.7255 488.275 41.4421 499.378 63.2331C512 88.0061 512 120.436 512 185.295V326.705C512 391.564 512 423.994 499.378 448.767C488.275 470.558 470.558 488.275 448.767 499.378C423.994 512 391.564 512 326.705 512H185.295C120.436 512 88.0061 512 63.2331 499.378C41.4421 488.275 23.7255 470.558 12.6225 448.767C0 423.994 0 391.564 0 326.705V185.295Z" fill="url(#paint3_radial_330_472)"/>
<path d="M0 185.295C0 120.436 0 88.0061 12.6225 63.2331C23.7255 41.4421 41.4421 23.7255 63.2331 12.6225C88.0061 0 120.436 0 185.295 0H326.705C391.564 0 423.994 0 448.767 12.6225C470.558 23.7255 488.275 41.4421 499.378 63.2331C512 88.0061 512 120.436 512 185.295V326.705C512 391.564 512 423.994 499.378 448.767C488.275 470.558 470.558 488.275 448.767 499.378C423.994 512 391.564 512 326.705 512H185.295C120.436 512 88.0061 512 63.2331 499.378C41.4421 488.275 23.7255 470.558 12.6225 448.767C0 423.994 0 391.564 0 326.705V185.295Z" fill="url(#paint4_radial_330_472)"/>
<path d="M0 185.295C0 120.436 0 88.0061 12.6225 63.2331C23.7255 41.4421 41.4421 23.7255 63.2331 12.6225C88.0061 0 120.436 0 185.295 0H326.705C391.564 0 423.994 0 448.767 12.6225C470.558 23.7255 488.275 41.4421 499.378 63.2331C512 88.0061 512 120.436 512 185.295V326.705C512 391.564 512 423.994 499.378 448.767C488.275 470.558 470.558 488.275 448.767 499.378C423.994 512 391.564 512 326.705 512H185.295C120.436 512 88.0061 512 63.2331 499.378C41.4421 488.275 23.7255 470.558 12.6225 448.767C0 423.994 0 391.564 0 326.705V185.295Z" fill="url(#paint5_radial_330_472)"/>
<path d="M0 185.295C0 120.436 0 88.0061 12.6225 63.2331C23.7255 41.4421 41.4421 23.7255 63.2331 12.6225C88.0061 0 120.436 0 185.295 0H326.705C391.564 0 423.994 0 448.767 12.6225C470.558 23.7255 488.275 41.4421 499.378 63.2331C512 88.0061 512 120.436 512 185.295V326.705C512 391.564 512 423.994 499.378 448.767C488.275 470.558 470.558 488.275 448.767 499.378C423.994 512 391.564 512 326.705 512H185.295C120.436 512 88.0061 512 63.2331 499.378C41.4421 488.275 23.7255 470.558 12.6225 448.767C0 423.994 0 391.564 0 326.705V185.295Z" fill="url(#paint6_radial_330_472)"/>
<path d="M408.671 154.036C381.577 124.06 343.391 107.212 303.711 107.431C264.884 107.431 225.417 124.497 200.031 152.067C195.337 151.629 190.644 151.191 186.164 151.191C110.004 151.191 62.8574 216.832 62.8574 277.66C63.0708 310.48 75.4441 341.988 97.4174 366.056C120.457 391.219 152.457 405.441 186.164 405.441H303.711C383.497 405.441 448.351 338.268 448.351 255.998C447.924 218.145 433.844 181.824 408.671 154.036ZM183.817 383.998C127.284 383.998 81.6307 336.956 81.6307 278.973C81.6307 221.427 127.071 174.603 183.391 174.166C208.351 174.166 234.591 182.48 251.231 200.641L294.111 245.714C301.151 253.154 300.937 264.969 293.684 272.19C286.431 279.41 274.911 279.191 267.871 271.752L226.057 227.554C198.751 203.485 157.577 206.549 134.111 234.555C123.871 246.59 118.324 262.125 118.324 278.097C118.324 314.856 148.831 345.926 184.884 345.926H193.204C205.151 362.993 238.644 383.998 238.644 383.998H183.817ZM393.311 346.364C370.484 370.87 338.911 384.655 305.844 384.873C274.484 384.873 242.484 370.432 217.951 345.489L162.057 287.725C155.017 280.285 155.231 268.47 162.271 261.25C165.684 257.749 170.164 255.998 175.071 255.998C179.977 255.998 184.671 257.967 188.084 261.687L243.764 318.795C261.471 336.955 284.084 347.239 305.844 347.239C329.097 347.239 351.284 337.393 367.284 319.889C383.711 302.603 392.884 279.41 392.884 255.342C392.884 205.892 353.631 165.851 305.417 165.632C287.071 165.632 271.924 169.352 256.991 180.073C248.537 171.403 230.324 162.788 222.004 161.038C245.044 138.938 273.844 128.217 305.417 128.217C373.897 128.217 429.151 185.106 429.364 255.342C429.364 289.256 416.564 322.077 393.311 346.364Z" fill="white"/>
</g>
<defs>
<radialGradient id="paint0_radial_330_472" cx="0" cy="0" r="1" gradientUnits="userSpaceOnUse" gradientTransform="translate(425.6 437.607) rotate(46.87) scale(305.807 313.231)">
<stop stop-color="#68E048"/>
<stop offset="1" stop-color="#5CE049" stop-opacity="0"/>
</radialGradient>
<radialGradient id="paint1_radial_330_472" cx="0" cy="0" r="1" gradientUnits="userSpaceOnUse" gradientTransform="translate(81.0667 435.419) rotate(137.364) scale(311.731 320.494)">
<stop stop-color="#308CFE"/>
<stop offset="1" stop-color="#2F8BFF" stop-opacity="0"/>
</radialGradient>
<radialGradient id="paint2_radial_330_472" cx="0" cy="0" r="1" gradientUnits="userSpaceOnUse" gradientTransform="translate(416 286.632) rotate(7.9001) scale(183.071 192.4)">
<stop stop-color="#FDD511"/>
<stop offset="1" stop-color="#FDD20D" stop-opacity="0"/>
</radialGradient>
<radialGradient id="paint3_radial_330_472" cx="0" cy="0" r="1" gradientUnits="userSpaceOnUse" gradientTransform="translate(87.4667 184.889) rotate(-127.134) scale(270.34 275.457)">
<stop stop-color="#F928C2"/>
<stop offset="1" stop-color="#F922BC" stop-opacity="0"/>
</radialGradient>
<radialGradient id="paint4_radial_330_472" cx="0" cy="0" r="1" gradientUnits="userSpaceOnUse" gradientTransform="translate(290.133 85.3333) rotate(-63.404) scale(271.612 274.44)">
<stop stop-color="#F90700"/>
<stop offset="1" stop-color="#F90700" stop-opacity="0"/>
</radialGradient>
<radialGradient id="paint5_radial_330_472" cx="0" cy="0" r="1" gradientUnits="userSpaceOnUse" gradientTransform="translate(484.267 74.3932) rotate(-65.6935) scale(163.258 164.695)">
<stop stop-color="#FB4200"/>
<stop offset="1" stop-color="#FB4300" stop-opacity="0"/>
</radialGradient>
<radialGradient id="paint6_radial_330_472" cx="0" cy="0" r="1" gradientUnits="userSpaceOnUse" gradientTransform="translate(53.3333 62.359) rotate(-133.672) scale(145.203 148.799)">
<stop stop-color="#FE0D88"/>
<stop offset="1" stop-color="#FE0D88" stop-opacity="0"/>
</radialGradient>
<clipPath id="clip0_330_472">
<rect width="512" height="512" fill="white"/>
</clipPath>
</defs>
</svg>
