<?xml version="1.0" encoding="utf-8"?>
<!-- Generator: Adobe Illustrator 27.5.0, SVG Export Plug-In . SVG Version: 6.00 Build 0)  -->
<svg version="1.1" id="Layer_1" xmlns="http://www.w3.org/2000/svg" xmlns:xlink="http://www.w3.org/1999/xlink" x="0px" y="0px"
	 viewBox="0 0 500 500" style="enable-background:new 0 0 500 500;" xml:space="preserve">
<style type="text/css">
	.st0{fill:#29494D;}
	.st1{fill:#FFFFFF;}
</style>
<path class="st0" d="M435.04,500H64.96C29.08,500,0,470.92,0,435.04V64.96C0,29.08,29.08,0,64.96,0h370.08
	C470.92,0,500,29.08,500,64.96v370.08C500,470.92,470.92,500,435.04,500z"/>
<g>
	<path class="st1" d="M330.71,392.67c4.84,4.63,14.63,5.62,21.41,1.61c4.45-2.63,8.52-5.94,12.59-9.16
		c5.1-4.03,10.29-7.87,16.67-9.62c10.42-2.86,19.72-0.23,28.06,6.2c4.9,3.77,9.36,8.14,14.45,11.63c2.75,1.89,6.31,2.84,9.64,3.58
		c3.53,0.78,5.75,2.6,5.59,5.69c-0.17,3.2-2.67,5.15-6.43,4.93c-8.15-0.48-14.52-4.69-20.5-9.78c-3.68-3.14-7.25-6.48-11.25-9.17
		c-7.31-4.93-15.08-5.11-22.52-0.34c-4.44,2.84-8.48,6.32-12.63,9.6c-6.68,5.29-13.88,9.22-22.69,9.39
		c-9.66,0.19-17.45-4.11-24.59-10.05c-2.62-2.18-5.2-4.42-7.87-6.54c-9.66-7.65-19.6-7.65-29.26,0c-3.8,3.01-7.46,6.2-11.32,9.12
		c-12.2,9.24-26.15,9.55-38.71,0.74c-4.25-2.98-8.15-6.46-12.24-9.68c-9.92-7.82-17.93-7.79-28.02-0.04
		c-4.41,3.39-8.78,6.87-13.45,9.87c-12.81,8.23-25.84,7.78-38.52-0.2c-5.67-3.57-10.81-7.98-16.2-12c-1.94-1.45-3.87-2.92-5.85-4.31
		c-2.96-2.07-6.13-2.63-9.34-0.67c-5.43,3.31-10.81,6.71-16.19,10.1c-5.24,3.29-10.3,6.91-15.74,9.81c-2.9,1.54-6.41,2.21-9.73,2.63
		c-2.94,0.37-5.02-1.88-5.19-4.64c-0.18-2.9,1.69-5.02,4.68-5.57c1.75-0.32,3.66-0.58,5.11-1.48c8.97-5.59,17.82-11.35,26.89-17.17
		c-3.19-6.05-5.97-11.87-9.26-17.38c-3.18-5.31,0-9.22,5.06-9.47c15.24-0.73,30.46-1.89,45.69-2.86c29.56-1.9,59.12-3.78,88.68-5.68
		c21.05-1.35,42.1-2.73,63.15-4.08c29.56-1.91,59.12-3.81,88.68-5.72c10.39-0.67,20.78-1.34,31.17-1.99c3.22-0.2,5.3,0.9,6.08,3.32
		c0.84,2.61-0.01,4.65-2.16,6.38c-20.41,16.39-41.8,31.29-65.13,43.29C343.25,386.14,336.99,389.41,330.71,392.67z M100.61,360.36
		c1.95,3.75,3.65,6.89,5.23,10.09c0.76,1.54,1.73,1.78,3.42,1.64c2.44-0.19,5.17-0.36,7.34,0.53c3.69,1.5,7.22,3.57,10.48,5.87
		c5.64,3.98,10.85,8.57,16.54,12.45c10.32,7.04,19.97,6.83,30.24-0.35c4.26-2.98,8.3-6.28,12.52-9.31
		c13.12-9.4,25.59-9.19,38.37,0.65c3.91,3.01,7.62,6.27,11.54,9.27c9.1,6.96,18.64,6.97,27.72,0.04c3.14-2.39,6.12-4.99,9.17-7.5
		c5.34-4.38,11.13-7.84,18.1-8.95c9.71-1.55,18.13,1.55,25.52,7.53c2.84,2.29,5.19,2.78,8.39,1.11c6.27-3.29,12.71-6.25,18.99-9.54
		c16.8-8.79,32.96-18.62,48.01-30.2c0.72-0.55,1.39-1.16,2.08-1.74c-0.1-0.16-0.2-0.33-0.3-0.49
		C296.38,347.75,198.79,354.03,100.61,360.36z"/>
	<path class="st1" d="M216.36,306.82c-34.8-0.01-66.51,10.1-95.95,28.07c-2.91,1.77-5.72,1.59-7.53-0.57
		c-1.93-2.31-1.73-4.89,0.67-7.47c11.55-12.46,19.26-27.18,25.04-42.97c9.17-25.05,12.49-51.01,11.11-77.54
		c-0.85-16.31-4.78-32.08-9.88-47.56c-6.56-19.92-15.08-38.96-25.37-57.22c-1.79-3.18-1.81-5.5-0.06-7.45
		c1.76-1.97,4.02-2.17,7.4-0.64c31.76,14.33,60.28,33.61,86.2,56.78c32.25,28.83,57.67,62.88,76.45,101.81
		c10.05,20.84,17.78,42.51,21.31,65.52c0.42,2.75,0.37,5.41-2.39,6.79c-1.28,0.64-3.26,0.84-4.55,0.32
		c-18.33-7.33-37.21-12.61-56.77-15.27C233.53,308.25,224.93,307.67,216.36,306.82z M293.98,311.63c-0.24-1.39-0.31-2.19-0.52-2.94
		c-2.53-8.79-4.67-17.71-7.71-26.32c-9.72-27.54-23.87-52.75-41.11-76.26c-28.28-38.54-63.87-68.76-105.36-92.22
		c-2.6-1.47-5.27-2.8-7.91-4.19c0.05,1.32,0.47,2.18,0.84,3.07c5.62,13.49,11.61,26.83,16.73,40.51
		c5.35,14.31,8.74,29.21,10.53,44.42c1.94,16.51,1.14,32.98-1.12,49.41c-2.64,19.24-7.76,37.76-16.2,55.3
		c-1.88,3.91-3.95,7.72-5.94,11.57C188.37,289.68,240.84,293.08,293.98,311.63z"/>
	<path class="st1" d="M219.15,130.83c7.21,0.88,14.04,3.79,20.65,7.28c14.87,7.84,28.03,18.11,40.49,29.26
		c15.8,14.14,30.81,29.09,44.16,45.6c11.33,14,20.74,29.28,29.27,45.11c9.84,18.28,18.27,37.2,25.4,56.69
		c0.18,0.51,0.38,1.01,0.55,1.52c0.74,2.2,0.64,4.33-1.1,6c-1.81,1.75-3.97,1.81-6.26,0.87c-3.65-1.5-7.36-2.87-10.98-4.42
		c-8.97-3.85-18.18-4.6-27.67-2.44c-0.96,0.22-1.94,0.39-2.91,0.53c-3.17,0.44-5.45-0.97-6.31-4.09
		c-6.53-23.68-15.27-46.54-25.84-68.69c-11.11-23.29-23.35-45.94-40.22-65.72c-12.3-14.42-26.33-26.94-42.13-37.45
		c-2.55-1.69-3.5-3.87-2.77-6.38C214.13,132.28,216.3,130.78,219.15,130.83z M261.15,165.55c0.39,0.48,0.8,0.95,1.18,1.45
		c6.48,8.36,13.55,16.33,19.32,25.15c22.39,34.25,38.77,71.33,50.72,110.41c0.7,2.28,1.45,3.21,4,2.79
		c8.76-1.46,17.34-0.73,25.66,2.56c1.01,0.4,2.09,0.63,3.33,1C344.13,250.95,309.76,203.06,261.15,165.55z"/>
</g>
</svg>
