<svg width="512" height="512" viewBox="0 0 513 520" fill="none" xmlns="http://www.w3.org/2000/svg">
<path d="M478.256 213.374C484.077 195.9 486.087 177.398 484.17 159.082C482.254 140.767 476.445 123.083 467.141 107.199C453.349 83.1678 432.275 64.1512 406.958 52.8721C381.654 41.593 353.415 38.6593 326.322 44.4683C314.108 30.6997 299.088 19.7011 282.269 12.1973C265.462 4.70519 247.24 0.883157 228.831 1.00004C201.13 0.92991 174.13 9.66097 151.712 25.9309C129.294 42.2008 112.627 65.1681 104.106 91.5249C86.0599 95.2183 69.0186 102.722 54.1045 113.534C39.1904 124.345 26.7775 138.219 17.6608 154.232C3.76354 178.193 -2.17405 205.952 0.712925 233.513C3.5999 261.062 15.1712 286.986 33.7437 307.546C27.923 325.008 25.9126 343.522 27.8295 361.837C29.7463 380.152 35.5553 397.837 44.8591 413.721C58.6512 437.752 79.7249 456.768 105.041 468.047C130.346 479.326 158.585 482.26 185.678 476.451C197.892 490.22 212.923 501.218 229.731 508.722C246.55 516.214 264.772 520.036 283.181 519.919C310.893 519.99 337.905 511.259 360.334 494.977C382.764 478.695 399.431 455.716 407.952 429.348C425.998 425.654 443.04 418.151 457.942 407.339C472.845 396.528 485.281 382.654 494.386 366.641C508.271 342.68 514.197 314.932 511.299 287.383C508.4 259.846 496.829 233.933 478.268 213.386M283.228 486C260.482 486.036 238.45 478.064 220.976 463.489C221.759 463.057 223.15 462.297 224.05 461.747L327.374 402.068C329.968 400.595 332.119 398.456 333.615 395.873C335.111 393.29 335.883 390.356 335.871 387.376V241.718L379.538 266.929C379.772 267.046 379.959 267.21 380.111 267.42C380.263 267.63 380.356 267.876 380.391 268.121V388.755C380.356 414.516 370.117 439.224 351.907 457.446C333.697 475.68 309 485.942 283.239 486M74.3016 396.761C62.9056 377.078 58.8031 354.006 62.7069 331.6C63.4784 332.056 64.8108 332.885 65.7809 333.435L169.104 393.115C171.676 394.622 174.609 395.417 177.59 395.417C180.57 395.417 183.504 394.622 186.076 393.115L312.214 320.286V370.72C312.226 370.977 312.179 371.234 312.074 371.468C311.969 371.702 311.793 371.901 311.595 372.064L207.149 432.363C184.813 445.232 158.269 448.715 133.374 442.041C108.466 435.367 87.2287 419.086 74.3133 396.785M47.1383 171.226C58.4875 151.509 76.4055 136.419 97.7597 128.588C97.7597 129.476 97.713 131.054 97.713 132.153V251.512C97.6896 254.493 98.4727 257.427 99.9571 260.01C101.442 262.593 103.592 264.732 106.187 266.204L232.326 339.033L188.659 364.245C188.448 364.385 188.191 364.479 187.934 364.49C187.677 364.514 187.42 364.479 187.174 364.373L82.7171 304.016C60.4161 291.1 44.1461 269.875 37.4722 244.979C30.7983 220.083 34.2696 193.563 47.1266 171.226M405.93 254.715L279.791 181.886L323.458 156.675C323.669 156.534 323.926 156.441 324.183 156.429C324.44 156.406 324.697 156.453 324.931 156.546L429.388 216.845C445.389 226.091 458.433 239.696 466.977 256.083C475.521 272.469 479.226 290.948 477.648 309.369C476.071 327.778 469.28 345.368 458.071 360.06C446.862 374.752 431.702 385.95 414.357 392.343V269.407C414.38 266.427 413.609 263.505 412.136 260.921C410.652 258.338 408.513 256.199 405.93 254.715ZM449.398 189.296C448.638 188.829 447.294 188.022 446.336 187.461L343.012 127.782C340.441 126.274 337.507 125.491 334.527 125.491C331.546 125.491 328.613 126.285 326.041 127.782L199.903 200.622V150.188C199.891 149.931 199.938 149.673 200.043 149.44C200.148 149.206 200.312 149.007 200.522 148.844L304.968 88.5911C320.969 79.3692 339.261 74.8809 357.716 75.6757C376.172 76.4705 394.02 82.5016 409.167 93.0677C424.315 103.634 436.144 118.291 443.274 135.332C450.392 152.373 452.519 171.086 449.398 189.296ZM176.152 279.19L132.474 253.979C132.24 253.862 132.041 253.698 131.901 253.488C131.749 253.277 131.655 253.032 131.632 252.786V132.153C131.632 113.674 136.915 95.5924 146.838 80.0003C156.762 64.4083 170.916 51.9721 187.642 44.1411C204.379 36.31 222.987 33.3996 241.314 35.7606C259.641 38.1216 276.916 45.6605 291.105 57.4773C290.322 57.9097 288.943 58.6694 288.031 59.2188L184.708 118.899C182.113 120.371 179.963 122.51 178.467 125.093C176.97 127.676 176.199 130.61 176.211 133.591L176.141 279.202L176.152 279.19ZM199.868 228.043L256.053 195.596L312.238 228.019V292.9L256.053 325.335L199.868 292.9V228.043Z" fill="white"/>
</svg>
